<svg fill="none" height="421" viewBox="0 0 368 421" width="368" xmlns="http://www.w3.org/2000/svg" xmlns:xlink="http://www.w3.org/1999/xlink"><linearGradient id="a"><stop offset="0" stop-opacity=".26"/><stop offset="1" stop-color="#fff" stop-opacity="0"/></linearGradient><linearGradient id="b" gradientUnits="userSpaceOnUse" x1="223.5" x2="223.5" xlink:href="#a" y1="0" y2="85"/><linearGradient id="c"><stop offset="0" stop-color="#fff" stop-opacity="0"/><stop offset="1" stop-opacity=".27"/></linearGradient><linearGradient id="d" gradientUnits="userSpaceOnUse" x1="223.5" x2="223.5" xlink:href="#c" y1="0" y2="85"/><linearGradient id="e" gradientUnits="userSpaceOnUse" x1="223.5" x2="223.5" xlink:href="#a" y1="85" y2="170"/><linearGradient id="f" gradientUnits="userSpaceOnUse" x1="223.5" x2="223.5" xlink:href="#c" y1="85" y2="170"/><linearGradient id="g" gradientUnits="userSpaceOnUse" x1="217.5" x2="217.5" xlink:href="#a" y1="170" y2="255"/><linearGradient id="h" gradientUnits="userSpaceOnUse" x1="217.5" x2="217.5" xlink:href="#c" y1="170" y2="255"/><linearGradient id="i" gradientUnits="userSpaceOnUse" x1="217.5" x2="217.5" xlink:href="#a" y1="255" y2="340"/><linearGradient id="j" gradientUnits="userSpaceOnUse" x1="217.5" x2="217.5" xlink:href="#c" y1="255" y2="340"/><linearGradient id="k" gradientUnits="userSpaceOnUse" x1="218.5" x2="218.5" xlink:href="#a" y1="340" y2="425"/><linearGradient id="l" gradientUnits="userSpaceOnUse" x1="218.5" x2="218.5" xlink:href="#c" y1="340" y2="425"/><mask id="m" height="421" maskUnits="userSpaceOnUse" width="368" x="0" y="0"><path d="m368 78.9375v210.5005c0 42.605-50.62 78.937-106.804 78.937l51.734 40.884c4.885 3.861 2.139 11.741-4.073 11.741h-249.7141c-6.2248 0-8.947-7.889-4.0719-11.741l51.733-40.884c-56.0233 0-106.804-36.218-106.804-78.937v-210.5005c0-43.5957 52.5714-78.9375 105.143-78.9375h157.714c53.393 0 105.143 35.3418 105.143 78.9375zm-203.714 111.8285v-92.0941c0-10.8992-8.827-19.7344-19.715-19.7344h-85.4281c-10.8881 0-19.7143 8.8352-19.7143 19.7344v92.0941c0 10.899 8.8262 19.734 19.7143 19.734h85.4281c10.888 0 19.715-8.835 19.715-19.734zm164.285 0v-92.0941c0-10.8992-8.826-19.7344-19.714-19.7344h-85.428c-10.888 0-19.715 8.8352-19.715 19.7344v92.0941c0 10.899 8.827 19.734 19.715 19.734h85.428c10.888 0 19.714-8.835 19.714-19.734zm-39.428 46.046c-21.776 0-39.429 17.671-39.429 39.469 0 21.799 17.653 39.469 39.429 39.469s39.428-17.67 39.428-39.469c0-21.798-17.652-39.469-39.428-39.469zm-210.2859 0c-21.776 0-39.4285 17.671-39.4285 39.469 0 21.799 17.6525 39.469 39.4285 39.469 21.7759 0 39.4289-17.67 39.4289-39.469 0-21.798-17.653-39.469-39.4289-39.469z" fill="#000"/></mask><g mask="url(#m)"><path d="m-53 0h553v85h-553z" fill="#49ade8"/><path d="m-53 0h553v85h-553z" fill="url(#b)"/><path d="m-53 0h553v85h-553z" fill="url(#d)"/><path d="m-53 85h553v85h-553z" fill="#efa841"/><path d="m-53 85h553v85h-553z" fill="url(#e)"/><path d="m-53 85h553v85h-553z" fill="url(#f)"/><path d="m-59 170h553v85h-553z" fill="#6ab157"/><path d="m-59 170h553v85h-553z" fill="url(#g)"/><path d="m-59 170h553v85h-553z" fill="url(#h)"/><path d="m-59 255h553v85h-553z" fill="#db3832"/><path d="m-59 255h553v85h-553z" fill="url(#i)"/><path d="m-59 255h553v85h-553z" fill="url(#j)"/><path d="m-58 340h553v85h-553z" fill="#864694"/><path d="m-58 340h553v85h-553z" fill="url(#k)"/><path d="m-58 340h553v85h-553z" fill="url(#l)"/></g></svg>