<svg width="280" height="311" viewBox="0 0 280 311" fill="none" xmlns="http://www.w3.org/2000/svg">
<path fill-rule="evenodd" clip-rule="evenodd" d="M279.142 216.458V95.0263C279.142 82.9559 272.684 71.822 262.162 65.7868L156.951 5.01874C146.43 -1.01645 133.617 -1.01645 123.096 5.01874L17.8843 65.6828C7.36319 71.718 0.904663 82.8518 0.904663 95.0263V216.458C0.904663 228.529 7.36319 239.663 17.8843 245.698L123.096 306.362C133.617 312.397 146.43 312.397 156.951 306.362L262.267 245.594C272.684 239.663 279.142 228.529 279.142 216.458Z" fill="#3074B4"/>
<path fill-rule="evenodd" clip-rule="evenodd" d="M140.076 292.21C137.471 292.21 134.867 291.482 132.471 290.233L27.2597 229.465C22.572 226.76 19.6553 221.765 19.6553 216.354V95.0263C19.6553 89.6154 22.572 84.6208 27.1555 81.9154L132.471 21.1473C134.763 19.7945 137.367 19.1702 140.076 19.1702C142.784 19.1702 145.284 19.8986 147.68 21.1473L252.996 81.9154C257.683 84.6208 260.6 89.6154 260.6 95.0263V216.458C260.6 221.869 257.683 226.864 252.996 229.569L147.68 290.337C145.284 291.482 142.68 292.21 140.076 292.21Z" fill="#FC9061"/>
<mask id="mask0_4_50" style="mask-type:alpha" maskUnits="userSpaceOnUse" x="10" y="133" width="259" height="61">
<path d="M10.6458 133.301H268.646V193.301H10.6458V133.301Z" fill="white"/>
</mask>
<g mask="url(#mask0_4_50)">
<path fill-rule="evenodd" clip-rule="evenodd" d="M10.6458 34.2317H268.646V292.232H10.6458V34.2317Z" fill="#3074B4"/>
</g>
<mask id="mask1_4_50" style="mask-type:alpha" maskUnits="userSpaceOnUse" x="122" y="244" width="36" height="35">
<path d="M122 244H157.139V278.037H122V244Z" fill="white"/>
</mask>
<g mask="url(#mask1_4_50)">
<path fill-rule="evenodd" clip-rule="evenodd" d="M144.917 255.167L157.139 256.912L148.335 265.657L150.471 277.948L139.523 272.186L128.621 278.037L130.658 265.73L121.785 257.056L133.993 255.212L139.41 244L144.917 255.167Z" fill="white"/>
</g>
<path fill-rule="evenodd" clip-rule="evenodd" d="M178.87 65.8803C178.87 64.6713 178.312 63.7413 177.289 63.0903C177.103 62.9973 176.824 62.8113 176.638 62.7183C176.638 59.6494 176.545 56.4875 176.359 53.3256C175.987 46.0718 172.174 42.5378 165.013 42.4448C158.782 42.4448 152.551 42.4448 146.32 42.4448C136.183 42.4448 126.139 42.3518 116.002 42.5378C106.702 42.7238 102.982 46.6297 102.982 55.9295C102.982 58.1614 102.982 60.3934 102.982 62.7183C102.424 62.9043 101.959 63.3693 101.587 63.8343C100.936 64.3923 100.75 65.2293 100.75 66.1592C100.75 70.4371 100.75 74.715 100.75 79.0859C100.75 80.3879 101.215 81.4109 102.331 82.0618C102.61 82.2478 102.796 82.3408 103.075 82.4338C103.075 91.6406 103.075 100.754 103.075 109.961C103.075 111.263 102.889 112.751 103.54 113.867C104.935 116.099 104.656 118.517 104.749 120.935C104.842 123.911 106.795 125.957 109.771 126.05C111.91 126.143 114.049 126.143 116.188 126.05C119.257 125.957 121.21 124.19 121.303 121.121C121.396 119.819 121.582 119.354 123.07 119.354C134.23 119.447 145.483 119.447 156.643 119.354C158.038 119.354 158.41 119.726 158.41 121.121C158.503 124.376 160.456 126.05 163.711 126.05C165.571 126.05 167.431 126.05 169.291 126.05C173.104 126.05 174.964 124.097 175.057 120.284C175.057 118.796 174.592 117.122 175.429 115.727C176.452 113.867 176.731 112.007 176.731 109.961C176.731 101.312 176.731 92.6636 176.731 82.4338C177.382 82.3408 177.94 81.7829 178.312 81.2249C178.777 80.6669 178.963 79.9229 178.963 79.1789C178.87 74.808 178.87 70.3441 178.87 65.8803ZM124.279 49.1407C129.859 49.1407 135.439 49.1407 140.926 49.1407C146.32 49.1407 151.714 49.1407 157.201 49.1407C159.619 49.1407 159.898 49.5127 159.991 52.3026C159.991 55.3715 159.712 55.8365 157.387 55.8365C146.32 55.8365 135.253 55.8365 124.279 55.8365C121.861 55.8365 121.396 55.2785 121.396 52.4886C121.303 49.6987 121.768 49.1407 124.279 49.1407ZM117.304 111.077C114.049 111.077 111.352 108.38 111.352 105.125C111.445 101.963 114.142 99.3594 117.211 99.3594C120.466 99.3594 122.884 101.87 122.884 105.218C122.977 108.473 120.466 111.077 117.304 111.077ZM116.467 90.9896C112.933 90.9896 111.352 89.3157 111.352 85.6888C111.352 79.1789 111.352 72.6691 111.352 66.1592C111.352 62.5323 112.84 61.0444 116.467 61.0444C124.279 61.0444 131.998 61.0444 139.81 61.0444C147.436 61.0444 155.062 61.0444 162.688 61.0444C166.78 61.0444 168.175 62.4393 168.175 66.4382C168.175 72.6691 168.175 78.8999 168.175 85.1308C168.175 88.8507 166.129 90.8966 162.409 90.9896C147.157 90.9896 131.812 90.9896 116.467 90.9896ZM162.409 111.077C159.247 111.077 156.736 108.566 156.643 105.311C156.643 101.963 159.061 99.4524 162.316 99.4524C165.571 99.4524 168.268 102.149 168.268 105.404C168.175 108.38 165.571 111.077 162.409 111.077Z" fill="white"/>
<path d="M51.2791 179.45C48.8791 179.45 47.0491 178.775 45.7891 177.425C44.5291 176.045 43.8991 174.08 43.8991 171.53V154.97C43.8991 152.42 44.5291 150.47 45.7891 149.12C47.0491 147.74 48.8791 147.05 51.2791 147.05C53.6791 147.05 55.5091 147.74 56.7691 149.12C58.0291 150.47 58.6591 152.42 58.6591 154.97V157.67H53.9791V154.655C53.9791 152.585 53.1241 151.55 51.4141 151.55C49.7041 151.55 48.8491 152.585 48.8491 154.655V171.89C48.8491 173.93 49.7041 174.95 51.4141 174.95C53.1241 174.95 53.9791 173.93 53.9791 171.89V165.725H51.5041V161.225H58.6591V171.53C58.6591 174.08 58.0291 176.045 56.7691 177.425C55.5091 178.775 53.6791 179.45 51.2791 179.45ZM65.7072 152H60.5322V147.5H75.8322V152H70.6572V179H65.7072V152ZM78.2288 147.5H91.3238V152H83.1788V160.775H89.5688V165.275H83.1788V179H78.2288V147.5ZM100.133 179.45C97.7325 179.45 95.9175 178.775 94.6875 177.425C93.4575 176.045 92.8425 174.08 92.8425 171.53V169.73H97.5225V171.89C97.5225 173.93 98.3775 174.95 100.088 174.95C100.928 174.95 101.558 174.71 101.978 174.23C102.428 173.72 102.653 172.91 102.653 171.8C102.653 170.48 102.353 169.325 101.753 168.335C101.153 167.315 100.043 166.1 98.4225 164.69C96.3825 162.89 94.9575 161.27 94.1475 159.83C93.3375 158.36 92.9325 156.71 92.9325 154.88C92.9325 152.39 93.5625 150.47 94.8225 149.12C96.0825 147.74 97.9125 147.05 100.313 147.05C102.683 147.05 104.468 147.74 105.668 149.12C106.898 150.47 107.513 152.42 107.513 154.97V156.275H102.833V154.655C102.833 153.575 102.623 152.795 102.203 152.315C101.783 151.805 101.168 151.55 100.358 151.55C98.7075 151.55 97.8825 152.555 97.8825 154.565C97.8825 155.705 98.1825 156.77 98.7825 157.76C99.4125 158.75 100.538 159.95 102.158 161.36C104.228 163.16 105.653 164.795 106.433 166.265C107.213 167.735 107.603 169.46 107.603 171.44C107.603 174.02 106.958 176 105.668 177.38C104.408 178.76 102.563 179.45 100.133 179.45ZM109.545 161H119.445V165.5H109.545V161ZM122.968 152H117.793V147.5H133.093V152H127.918V179H122.968V152ZM142.469 179.45C140.039 179.45 138.179 178.76 136.889 177.38C135.599 176 134.954 174.05 134.954 171.53V154.97C134.954 152.45 135.599 150.5 136.889 149.12C138.179 147.74 140.039 147.05 142.469 147.05C144.899 147.05 146.759 147.74 148.049 149.12C149.339 150.5 149.984 152.45 149.984 154.97V171.53C149.984 174.05 149.339 176 148.049 177.38C146.759 178.76 144.899 179.45 142.469 179.45ZM142.469 174.95C144.179 174.95 145.034 173.915 145.034 171.845V154.655C145.034 152.585 144.179 151.55 142.469 151.55C140.759 151.55 139.904 152.585 139.904 154.655V171.845C139.904 173.915 140.759 174.95 142.469 174.95ZM152.611 161H162.511V165.5H152.611V161ZM165.46 147.5H170.41V160.325H175.72V147.5H180.67V179H175.72V164.825H170.41V179H165.46V147.5ZM188.227 152H183.052V147.5H198.352V152H193.177V179H188.227V152ZM200.748 147.5H207.813L210.963 170.045H211.053L214.203 147.5H221.268V179H216.588V155.15H216.498L212.898 179H208.758L205.158 155.15H205.068V179H200.748V147.5ZM224.962 147.5H229.912V174.5H238.057V179H224.962V147.5Z" fill="white"/>
</svg>
