<svg height="569.68008" viewBox="0 0 887.87284 569.68008" width="887.87284" xmlns="http://www.w3.org/2000/svg"><path d="m276.41138.34664h611.46146v391.60712h-611.46146z" fill="#e6e6e6"/><path d="m293.89598 49.46394h576.49225v319.32231h-576.49225z" fill="#fff"/><path d="m276.1503 0h611.46146v25.97712h-611.46146z" fill="#6c63ff"/><circle cx="295.45441" cy="13.28088" fill="#fff" r="4.81466"/><circle cx="313.72965" cy="13.28088" fill="#fff" r="4.81466"/><circle cx="332.00489" cy="13.28088" fill="#fff" r="4.81466"/><g transform="translate(-156.06358 -165.15996)"><path d="m863.33045 244.53256h-187.68714a1.66587 1.66587 0 0 1 0-3.30318h187.68714a1.66587 1.66587 0 0 1 0 3.30318z" fill="#ccc"/><path d="m733.2818 262.7h-119.33194a1.66587 1.66587 0 0 1 0-3.30317h119.33194a1.66587 1.66587 0 0 1 0 3.30317z" fill="#ccc"/><path d="m863.33045 263.03033h-119.33195a1.66587 1.66587 0 0 1 0-3.30317h119.332a1.66587 1.66587 0 0 1 0 3.30317z" fill="#ccc"/><path d="m733.57144 280.86747h-119.33194a1.66587 1.66587 0 0 1 0-3.30317h119.33194a1.66587 1.66587 0 0 1 0 3.30317z" fill="#ccc"/><path d="m733.86108 299.03493h-119.33194a1.66587 1.66587 0 0 1 0-3.30317h119.33194a1.66587 1.66587 0 0 1 0 3.30317z" fill="#ccc"/><path d="m788.02388 280.86747h-34.17759a1.66587 1.66587 0 0 1 0-3.30317h34.17759a1.66587 1.66587 0 0 1 0 3.30317z" fill="#ccc"/><path d="m788.02388 298.70461h-34.17759a1.66587 1.66587 0 0 1 0-3.30317h34.17759a1.66587 1.66587 0 0 1 0 3.30317z" fill="#ccc"/><path d="m845.37273 298.70461h-34.1776a1.66587 1.66587 0 0 1 0-3.30317h34.1776a1.66587 1.66587 0 0 1 0 3.30317z" fill="#ccc"/><path d="m647.25853 244.53256h-34.1776a1.66587 1.66587 0 0 1 0-3.30318h34.1776a1.66587 1.66587 0 0 1 0 3.30318z" fill="#ccc"/><path d="m732.84734 452.83835h-119.33195a1.66587 1.66587 0 0 1 0-3.30317h119.332a1.66587 1.66587 0 0 1 0 3.30317z" fill="#ccc"/><path d="m732.26806 489.17327h-119.33195a1.66587 1.66587 0 0 1 0-3.30318h119.332a1.66587 1.66587 0 0 1 0 3.30318z" fill="#ccc"/><path d="m732.5577 507.34073h-119.33195a1.66587 1.66587 0 0 1 0-3.30318h119.332a1.66587 1.66587 0 0 1 0 3.30318z" fill="#ccc"/><path d="m783.53445 489.50359h-34.17759a1.66587 1.66587 0 0 1 0-3.30318h34.17759a1.66587 1.66587 0 0 1 0 3.30318z" fill="#ccc"/><path d="m783.53445 507.34073h-34.17759a1.66587 1.66587 0 0 1 0-3.30318h34.17759a1.66587 1.66587 0 0 1 0 3.30318z" fill="#ccc"/><path d="m840.8833 489.50359h-34.1776a1.66587 1.66587 0 0 1 0-3.30318h34.1776a1.66587 1.66587 0 0 1 0 3.30318z" fill="#ccc"/><path d="m863.47527 471.00581h-187.68714a1.66587 1.66587 0 0 1 0-3.30317h187.68714a1.66587 1.66587 0 0 1 0 3.30317z" fill="#ccc"/><path d="m647.40335 471.00581h-34.1776a1.66587 1.66587 0 0 1 0-3.30317h34.1776a1.66587 1.66587 0 0 1 0 3.30317z" fill="#ccc"/></g><path d="m547.965 163.221-46.343 45.764 46.343 45.763 10.427-10.427-35.047-35.047 35.336-35.336z" fill="#e6e6e6"/><path d="m616.32 163.221 46.342 45.764-46.342 45.763-10.427-10.427 35.046-35.047-35.336-35.336z" fill="#e6e6e6"/><path d="m547.965 163.221-46.343 45.764 46.343 45.763 10.427-10.427-35.047-35.047 35.336-35.336z" fill="#6c63ff"/><path d="m616.32 163.221 46.342 45.764-46.342 45.763-10.427-10.427 35.046-35.047-35.336-35.336z" fill="#6c63ff"/><path d="m626.6665 711.1954c14.41965 19.311 44.352 21.34353 44.352 21.34353s6.55352-29.2768-7.86613-48.5878-44.352-21.34353-44.352-21.34353-6.55352 29.27679 7.86613 48.5878z" fill="#e6e6e6" transform="translate(-156.06358 -165.15996)"/><path d="m700.12323 718.455c-9.5151 12.74275-29.26658 14.08395-29.26658 14.08395s-4.32447-19.31887 5.19062-32.06162 29.26658-14.084 29.26658-14.084 4.32447 19.31889-5.19062 32.06167z" fill="#e6e6e6" transform="translate(-156.06358 -165.15996)"/><path d="m149.825 460.994v50.126h-14.322l-9.547-52.513z" fill="#ffb9b9"/><path d="m36.445 460.994v50.126h-14.321l-9.548-52.513z" fill="#ffb9b9"/><path d="m268.06126 256.64223s-23.014-16.54132-25.89076-8.63026 17.2605 22.29483 17.2605 22.29483z" fill="#ffb9b9" transform="translate(-156.06358 -165.15996)"/><path d="m186.43344 277.85827c0 28.59815 12.31285 29.4867 32.37127 29.4867s40.2667-.88855 40.2667-29.4867-16.26056-51.78152-36.319-51.78152-36.31897 23.18337-36.31897 51.78152z" fill="#2f2e41" transform="translate(-156.06358 -165.15996)"/><path d="m235.69781 277.49868s-2.87676 21.57563 10.78781 23.014-44.58964 5.7535-44.58964 5.7535 15.10294-13.66457 7.19188-24.45239 26.60995-4.31511 26.60995-4.31511z" fill="#ffb9b9" transform="translate(-156.06358 -165.15996)"/><path d="m308.33578 662.98336 5.03431 42.43208s25.17158 30.92508 9.34944 28.76751-25.89076.45876-25.89076-2.418-.372-13.155-2.52959-13.155-3.9431 16.23013-3.9431 16.23013-6.47269-.48981-7.19188-1.209-1.43837-41.88017-1.43837-41.88017-2.15757-12.22619 2.15756-17.9797 3.59594-10.78781 3.59594-10.78781z" fill="#2f2e41" transform="translate(-156.06358 -165.15996)"/><path d="m193.76255 662.51677 5.03431 42.43208s25.17158 30.92508 9.34945 28.76751-25.89077.45876-25.89077-2.418-.372-13.155-2.52958-13.155-3.94311 16.23013-3.94311 16.23013-6.47269-.48981-7.19188-1.209-1.43837-41.88017-1.43837-41.88017-2.15756-12.22619 2.15756-17.9797 3.59594-10.78781 3.59594-10.78781z" fill="#2f2e41" transform="translate(-156.06358 -165.15996)"/><path d="m270.938 410.54843s23.014 65.44609 24.45239 79.82985-1.43838 63.28853-1.43838 63.28853 20.85645 84.49856 16.54132 85.21775-28.3456 4.12889-29.06478.533-3.28315-9.16321-2.564-11.32077-2.15755-10.06868-2.15755-14.38379-10.08416-26.96353-9.365-30.55947-12.22619-56.81584-14.38376-61.131-7.91106-34.521-7.91106-34.521-32.36346 88.46011-33.08264 90.61767-3.59594 5.75351-2.15757 6.47269-2.15756 5.75351-2.15756 5.75351-7.45231 29.84028-7.45231 31.27866 1.43838 17.71926-1.43837 18.43845-32.26142.67328-33.6998-4.361 15.26134-63.33577 15.26134-63.33577 12.2262-36.67858 8.63026-46.028 3.59594-65.4461 6.47269-69.76122 3.59594-30.20589 3.59594-30.20589z" fill="#2f2e41" transform="translate(-156.06358 -165.15996)"/><circle cx="67.04844" cy="101.1913" fill="#ffb9b9" r="23.01401"/><path d="m235.69781 295.47837s-25.89077.71919-27.32914-1.43837-37.39777 5.03431-37.39777 19.41807 20.85645 70.48041 20.85645 70.48041 7.91106 40.27451 5.7535 44.58964 79.82985-9.34944 77.67229-16.54132-14.38376-23.014 1.43837-36.67858 22.29483-28.04832 22.29483-28.04832l-18.69889-49.624s-18.69888-2.87676-23.014 0-21.57564-2.15753-21.57564-2.15753z" fill="#6c63ff" transform="translate(-156.06358 -165.15996)"/><path d="m293.952 350.85584 5.03432-3.59594s46.7472-48.90478 34.521-58.25422-30.20586-17.97968-38.83611-18.69888-15.82213-7.19188-15.82213-7.19188-9.34945-16.54132-16.54132-5.7535-15.10295 14.38375-5.03432 17.97969 16.54132 2.15757 21.57564 5.75351 24.45238 9.34944 15.82213 11.507a77.19464 77.19464 0 0 0 -14.38376 5.03432l-9.34945 16.54132z" fill="#6c63ff" transform="translate(-156.06358 -165.15996)"/><path d="m212.68379 472.39858s18.69889 27.32914 5.03432 25.89076-20.13726-20.13726-20.13726-20.13726z" fill="#ffb9b9" transform="translate(-156.06358 -165.15996)"/><path d="m176.00521 309.86213-5.03431 3.59594s-16.54132 90.61767 0 114.35086 17.9797 22.29483 17.9797 22.29483 2.87675-2.15757 4.31512 12.22619-.71918 20.13726 3.59594 20.13726 23.7332-4.31513 22.29483-7.91107-10.78782-24.45238-11.507-29.4867-4.31513-16.54132-5.7535-23.014 6.47269-10.06863 2.87675-23.7332-8.63026-38.11695-8.63026-43.15127-20.13727-45.30884-20.13727-45.30884z" fill="#6c63ff" transform="translate(-156.06358 -165.15996)"/><path d="m200.8172 245.85441c0 7.74533 10.62571 14.02416 23.73319 14.02416s25.17158 4.1494 25.17158-3.59594-12.06409-24.45238-25.17158-24.45238-23.73319 6.27883-23.73319 14.02416z" fill="#2f2e41" transform="translate(-156.06358 -165.15996)"/><path d="m258.85586 282.712s.96872 26.07138-24.939 24.633 3.50113-22.2854 3.50113-22.2854z" fill="#2f2e41" transform="translate(-156.06358 -165.15996)"/><path d="m0 567.37896h702.90551v2.24072h-702.90551z" fill="#3f3d56"/></svg>