<svg height="772.83071" viewBox="0 0 887.77227 772.83071" width="887.77227" xmlns="http://www.w3.org/2000/svg"><path d="m887.772 763.25-635.509 9.581-252.263-44.71h393.817z" fill="#e6e6e6"/><circle cx="731.82227" cy="101.66024" fill="#ff6584" r="101.66024"/><path d="m335.9542 797.01953s1.487-31.15875 31.97119-27.537" fill="#3f3d56" transform="translate(-156.11386 -63.58465)"/><circle cx="171.2269" cy="688.52637" fill="#6c63ff" r="15.25711"/><path d="m168.74434 714.21843h4.30672v30.14703h-4.30672z" fill="#3f3d56"/><path d="m838.40061 802.34205s1.487-31.15874 31.97119-27.537" fill="#3f3d56" transform="translate(-156.11386 -63.58465)"/><circle cx="673.67331" cy="693.8489" fill="#6c63ff" r="15.25711"/><path d="m671.19075 719.54095h4.30672v30.14703h-4.30672z" fill="#3f3d56"/><path d="m911.85146 807.66458s1.487-31.15874 31.9712-27.537" fill="#3f3d56" transform="translate(-156.11386 -63.58465)"/><circle cx="747.12416" cy="699.17142" fill="#6c63ff" r="15.25711"/><path d="m744.64161 724.86348h4.30672v30.14703h-4.30672z" fill="#3f3d56"/><path d="m456.24328 782.11645s1.487-31.15874 31.97119-27.53695" fill="#3f3d56" transform="translate(-156.11386 -63.58465)"/><circle cx="291.51598" cy="673.6233" fill="#6c63ff" r="15.25711"/><path d="m289.03342 699.31536h4.30672v30.14703h-4.30672z" fill="#3f3d56"/><path d="m229.50369 787.439s1.487-31.15874 31.97119-27.537" fill="#3f3d56" transform="translate(-156.11386 -63.58465)"/><circle cx="64.77639" cy="678.94583" fill="#6c63ff" r="15.25711"/><path d="m62.29383 704.63788h4.30672v30.14703h-4.30672z" fill="#3f3d56"/><circle cx="442.27688" cy="503.48191" fill="#3f3d56" r="166.22823"/><path d="m493.73979 580.41025a43.98767 43.98767 0 0 1 67.51907 0 48.89067 48.89067 0 1 0 -67.51907 0z" fill="#fff" transform="translate(-156.11386 -63.58465)"/><path d="m625.74457 580.41025a43.98759 43.98759 0 0 1 67.519 0 48.89064 48.89064 0 1 0 -67.519 0z" fill="#fff" transform="translate(-156.11386 -63.58465)"/><circle cx="354.70738" cy="464.81392" fill="#3f3d56" r="16.81788"/><circle cx="486.70738" cy="464.81392" fill="#3f3d56" r="16.81788"/><circle cx="322.49478" cy="545.03897" fill="#ff6584" r="19.55626"/><circle cx="547.39179" cy="545.03897" fill="#ff6584" r="19.55626"/><path d="m434.943 505.926-14.667 63.558 24.445-24.445z" fill="#ff6584"/><path d="m510.307 750.38-16.652-13.976.388 13.976h-5.172l-.413-14.778-22.483 14.778h-9.412l31.727-20.854-1.229-43.789-.918-33.071 5.159-.142.931 33.213 1.228 43.75 24.887 20.893z" fill="#3f3d56"/><path d="m432.076 750.38-16.652-13.976.388 13.976h-5.158l-.414-14.778-22.483 14.778h-9.412l31.714-20.854-1.228-43.789-.918-33.071 5.171-.142.931 33.213 1.215 43.75 24.888 20.893z" fill="#3f3d56"/><path d="m600.83528 388.61566c-4.56112 0-8.58481 3.543-11.27493 8.985-2.37112-8.18315-7.3527-13.874-13.1704-13.874a8.84714 8.84714 0 0 0 -1.17422.19724c-2.23625-8.737-7.43356-14.86444-13.493-14.86444-8.1005 0-14.6672 10.9446-14.6672 24.44533s6.5667 24.44533 14.6672 24.44533a8.84716 8.84716 0 0 0 1.17422-.19725c2.23625 8.737 7.43356 14.86444 13.493 14.86444 4.56112 0 8.58481-3.543 11.27493-8.985 2.37113 8.18316 7.3527 13.874 13.1704 13.874 8.1005 0 14.6672-10.9446 14.6672-24.44533s-6.5667-24.44532-14.6672-24.44532z" fill="#3f3d56" transform="translate(-156.11386 -63.58465)"/><path d="m393.47351 507.83307a48.89061 48.89061 0 0 1 48.89061 48.89061v24.44543a48.89061 48.89061 0 0 1 -48.89061 48.89061 0 0 0 0 1 0 0v-122.22665a0 0 0 0 1 0 0z" fill="#6c63ff" transform="matrix(-1 0 0 -1 679.72382 1074.30814)"/><path d="m598.30346 444.24843a48.89061 48.89061 0 0 1 48.89066 48.89057v24.44543a48.89061 48.89061 0 0 1 -48.89061 48.89061 0 0 0 0 1 0 0v-122.22661a0 0 0 0 1 -.00005 0z" fill="#6c63ff"/><g transform="translate(-156.11386 -63.58465)"><path d="m780.03662 560.56514h-7.75712c0-98.37742-80.03569-178.41374-178.41374-178.41374-98.37742 0-178.41374 80.03632-178.41374 178.41374h-7.75712c0-102.655 83.51592-186.17086 186.17086-186.17086 102.65558 0 186.17086 83.51591 186.17086 186.17086z" fill="#6c63ff"/><path d="m327.66117 411.058.00139-.0029-3.64431-1.51771-15.37654-6.50027-5.51164-2.32988-.423 1.06789-7.40381 18.694 20.83674 8.81923.1094.09906-1.40416 3.31082a5.86169 5.86169 0 0 0 -.4899.95547c-.98358 2.48353.87418 4.95394 2.63035 5.6494s3.9773-.75381 4.96087-3.23734c.97022-2.44974.02206-5.5618-1.68937-6.31373l.00151-.0029-3.64431-1.51771-12.46676-4.84631 7.12325-17.98534-1.0558-.41806-7.12577 17.992-1.54154-.59929 7.15363-18.06223.18843.07978 14.6541 6.20232.10928.09906-1.404 3.31082a5.85137 5.85137 0 0 0 -.48989.95547c-.98371 2.48353.87405 4.95394 2.63022 5.6494s3.9773-.75381 4.96087-3.23734c.97023-2.44971.02207-5.56178-1.68924-6.31371z" fill="#3f3d56"/><path d="m399.78108 456.95208c-7.564-4.32464-6.05044-13.815-6.05044-13.815-.19032-6.16526-5.284-5.29259-5.284-5.29259l-1.85385.4231a5.62911 5.62911 0 0 0 -2.75664-.50981l-2.82.47452c6.42137 1.50877 5.89378 6.88051 5.89378 6.88051l.89964 6.281-16.82582-6.78775 1.93187-4.555a8.12868 8.12868 0 0 0 .68046-1.32715c1.3661-3.44946-1.21409-6.88051-3.65325-7.84645-2.43916-.96618-5.524 1.0471-6.89022 4.49643-1.34744 3.40232-.0305 7.7247 2.3464 8.769l-.002.00415 5.06157 2.10782.03769-.11936zm-8.54443-11.036.53956 6.012a13.8665 13.8665 0 0 1 -2.52575-9.20675 5.82316 5.82316 0 0 0 -1.12688-3.22524 6.83065 6.83065 0 0 1 3.11307 6.41997z" fill="#3f3d56"/><path d="m271.4328 368.0405.002-.004-5.06157-2.10794-21.1545-8.22341 5.33923-4.75027a6.74419 6.74419 0 0 1 9.21683-1.5099l-1.65686-2.46248s-3.11483-4.12374-7.475.23935c0 0-5.39481 7.95307-13.86878 5.92579l28.94032 12.249.15187.13763-1.95014 4.59827a8.12429 8.12429 0 0 0 -.68047 1.32715c-1.36609 3.44933 1.2141 6.88038 3.65326 7.84644s5.524-1.0471 6.89022-4.49643c1.34743-3.40237.03049-7.7247-2.34641-8.7692z" fill="#3f3d56"/><path d="m348.87976 341.126-1.95027 4.59826a8.13218 8.13218 0 0 0 -.68034 1.32715c-1.36622 3.44933 1.214 6.88039 3.65313 7.84645s5.52412-1.0471 6.89022-4.49643c1.34756-3.40232.03062-7.7247-2.34627-8.76915l.002-.004-5.06157-2.10794-17.31509-6.73091 9.89338-24.97992-1.46629-.58077-9.89716 24.98925-2.141-.83221 9.9356-25.0868.26178.11078 20.353 8.61438.152.13763-1.95018 4.59823a8.13743 8.13743 0 0 0 -.68034 1.32715c-1.36622 3.44946 1.214 6.88051 3.65313 7.84657s5.52412-1.0471 6.89022-4.49656c1.34756-3.40231.03062-7.72469-2.34628-8.769l.002-.00416-5.06157-2.10781-20.68475-8.74419-.00088-.00038-.67088-.28358-7.65513-3.23608-10.87066 27.44744 28.9402 12.249z" fill="#3f3d56"/><path d="m257.16744 200.55646.00353-.00706-8.71319-3.62856-36.41622-14.15627 9.19111-8.17728s6.11371-8.4828 15.86619-2.5991l-2.852-4.23907s-5.36217-7.09893-12.86781.41189c0 0-9.2869 13.69082-23.87434 10.201l49.81893 21.08581.26152.237-3.35707 7.91563a14.00544 14.00544 0 0 0 -1.17137 2.28464c-2.35169 5.9379 2.08991 11.84429 6.28877 13.50732s9.50936-1.80256 11.86117-7.74045c2.31951-5.85696.05251-13.29761-4.03922-15.0955z" fill="#3f3d56"/><path d="m283.90741 319.4701c-18.08491-10.33993-14.46594-33.03029-14.46594-33.03029-.455-14.7407-12.63376-12.65406-12.63376-12.65406l-4.43241 1.01143a13.4583 13.4583 0 0 0 -6.59088-1.219l-6.7425 1.13469c15.353 3.60738 14.09161 16.45074 14.09161 16.45074l2.15092 15.0171-40.229-16.2288 4.61893-10.89082a19.45075 19.45075 0 0 0 1.627-3.17306c3.26633-8.24724-2.90271-16.45062-8.73461-18.76034s-13.20748 2.50356-16.47381 10.75068c-3.22184 8.13468-.07322 18.46919 5.60983 20.96607l-.00479.00983 12.10177 5.03977.09011-.28534zm-20.429-26.3861 1.29451 14.42385c-7.59564-10.08294-6.04314-22.06233-6.04314-22.06233a13.925 13.925 0 0 0 -2.69425-7.71121c8.72525 5.22138 7.44284 15.34969 7.44284 15.34969z" fill="#3f3d56"/></g></svg>